<svg xmlns="http://www.w3.org/2000/svg" width="64.938" height="59.83" viewBox="0 0 64.938 59.83">
  <path id="Icon_metro-qrcode" data-name="Icon metro-qrcode" d="M22.864,5.667H6.629V20.625H22.864Zm4.059-3.739V24.364H2.571V1.928ZM10.688,9.407h8.117v7.479H10.688ZM63.45,5.667H47.215V20.625H63.45Zm4.059-3.739V24.364H43.157V1.928H67.508ZM51.274,9.407h8.117v7.479H51.274ZM22.864,43.061H6.629V58.019H22.864Zm4.059-3.739V61.758H2.571V39.322ZM10.688,46.8h8.117v7.479H10.688ZM30.981,1.928h4.059V5.667H30.981Zm4.059,3.739H39.1V9.407H35.039ZM30.981,9.407h4.059v3.739H30.981Zm4.059,3.739H39.1v3.739H35.039Zm-4.059,3.739h4.059v3.739H30.981Zm4.059,3.739H39.1v3.739H35.039Zm-4.059,3.739h4.059V28.1H30.981Zm0,7.479h4.059v3.739H30.981Zm4.059,3.739H39.1v3.739H35.039Zm-4.059,3.739h4.059v3.739H30.981Zm4.059,3.739H39.1V46.8H35.039ZM30.981,46.8h4.059V50.54H30.981Zm4.059,3.739H39.1v3.739H35.039Zm-4.059,3.739h4.059v3.739H30.981Zm4.059,3.739H39.1v3.739H35.039ZM63.45,31.843h4.059v3.739H63.45Zm-56.82,0h4.059v3.739H6.629ZM10.688,28.1h4.059v3.739H10.688Zm-8.117,0H6.629v3.739H2.571Zm16.234,0h4.059v3.739H18.805Zm4.059,3.739h4.059v3.739H22.864ZM26.922,28.1h4.059v3.739H26.922ZM39.1,31.843h4.059v3.739H39.1ZM43.157,28.1h4.059v3.739H43.157Zm4.059,3.739h4.059v3.739H47.215ZM51.274,28.1h4.059v3.739H51.274Zm4.059,3.739h4.059v3.739H55.332ZM59.391,28.1H63.45v3.739H59.391ZM63.45,39.322h4.059v3.739H63.45Zm-24.352,0h4.059v3.739H39.1Zm4.059-3.739h4.059v3.739H43.157Zm4.059,3.739h4.059v3.739H47.215Zm8.117,0h4.059v3.739H55.332Zm4.059-3.739H63.45v3.739H59.391ZM63.45,46.8h4.059V50.54H63.45ZM39.1,46.8h4.059V50.54H39.1Zm4.059-3.739h4.059V46.8H43.157Zm8.117,0h4.059V46.8H51.274ZM55.332,46.8h4.059V50.54H55.332Zm4.059-3.739H63.45V46.8H59.391ZM63.45,54.279h4.059v3.739H63.45ZM43.157,50.54h4.059v3.739H43.157Zm4.059,3.739h4.059v3.739H47.215Zm4.059-3.739h4.059v3.739H51.274Zm4.059,3.739h4.059v3.739H55.332ZM43.157,58.019h4.059v3.739H43.157Zm8.117,0h4.059v3.739H51.274Zm8.117,0H63.45v3.739H59.391Z" transform="translate(-2.571 -1.928)" fill="#fff"/>
</svg>
